<svg id="Layer_1" data-name="Layer 1" xmlns="http://www.w3.org/2000/svg" xmlns:xlink="http://www.w3.org/1999/xlink" viewBox="0 0 1045.33 358.27"><defs><style>.cls-1{fill:none;}.cls-2{clip-path:url(#clip-path);}.cls-3{fill:#1c1c22;}.cls-4{fill:#9a3720;}.cls-5{fill:#628393;}.cls-6{fill:#b36427;}</style><clipPath id="clip-path" transform="translate(-17.78 -364.75)"><rect class="cls-1" x="17.78" y="357.75" width="1045.33" height="365.27"/></clipPath></defs><g class="cls-2"><path class="cls-3" d="M208.47,423.86s10.06-2.21,10.21-6.47-8.69-4.3-8.69-4.3,3.89-2.31,2.59-5.74c-.86-2.28-7.26.3-10.9,1.62l-.66.1a7.29,7.29,0,0,1-1.68.16c1.79-2.21,15.69-12,13.69-17.06s-8.56-1.1-8.56-1.1,2.84-14.5-1.92-16.94v0h0l-.15-.08c-5-2.16-13.33,10.8-13.33,10.8s-4-7.79-7-5.12-2,21.77-2,21.77-5.25-11.12-8.2-10.58-2.11,6-2.11,6-7.1-5.09-9.2-3,2.86,11.79,2.86,11.79-4.57-1.53-6.21,2.47c-.92,2.24,14.33,9.79,14.34,9.79s-7,2.33-5.75,4.57,13.09,5.39,13.09,5.39l-4.3,7.87c-1.3,2.38-2.4,4.4-2.44,4.52s6,2.4,6,2.41.5-1.83,1.13-4.1l2.62-9.48s10.52,7.17,13.12,5.23-1.09-7.36-1.09-7.36,15.49,7.61,17.28,3-2.75-6.13-2.75-6.13" transform="translate(-17.78 -364.75)"/><path class="cls-3" d="M184.28,608s10.06-2.21,10.21-6.48-8.69-4.29-8.69-4.29,3.89-2.31,2.6-5.74c-.87-2.28-7.27.3-10.91,1.62l-.66.1a7.29,7.29,0,0,1-1.68.16c1.79-2.21,15.69-12,13.69-17.07s-8.56-1.09-8.56-1.09,2.84-14.5-1.91-16.94v0h0l-.15-.08c-5-2.16-13.33,10.8-13.33,10.8s-4-7.79-7-5.12-2,21.77-2,21.77-5.25-11.12-8.2-10.58-2.1,6-2.1,6-7.11-5.09-9.21-3,2.86,11.79,2.86,11.79-4.57-1.53-6.21,2.47c-.92,2.23,14.33,9.79,14.34,9.79s-7,2.33-5.75,4.57S154.68,612,154.68,612l-4.3,7.88c-1.3,2.38-2.4,4.4-2.44,4.51s6,2.41,6,2.42.51-1.83,1.13-4.1l2.62-9.48s10.52,7.16,13.13,5.23-1.1-7.37-1.1-7.37,15.49,7.62,17.28,3-2.75-6.13-2.75-6.13" transform="translate(-17.78 -364.75)"/><path class="cls-3" d="M765.09,463.74s10.06-2.21,10.21-6.48-8.69-4.29-8.69-4.29,3.89-2.31,2.59-5.74c-.86-2.28-7.26.3-10.9,1.62l-.66.1a7.33,7.33,0,0,1-1.68.16c1.79-2.21,15.68-11.95,13.69-17.07s-8.56-1.09-8.56-1.09,2.83-14.5-1.92-16.94v0h0l-.15-.08c-5-2.16-13.33,10.8-13.33,10.8s-4-7.79-7-5.12-2,21.77-2,21.77-5.25-11.12-8.2-10.58-2.11,6-2.11,6-7.1-5.09-9.2-3S720,445.57,720,445.57,715.45,444,713.8,448c-.91,2.23,14.34,9.79,14.34,9.79s-7,2.33-5.74,4.57,13.08,5.38,13.08,5.38l-4.29,7.88c-1.3,2.38-2.4,4.4-2.44,4.51s6,2.41,6,2.42.51-1.83,1.14-4.1l2.62-9.48s10.52,7.16,13.12,5.23-1.09-7.37-1.09-7.37,15.49,7.62,17.28,3-2.75-6.13-2.75-6.13" transform="translate(-17.78 -364.75)"/><path class="cls-3" d="M997.6,414.82s10.06-2.21,10.21-6.48-8.69-4.29-8.69-4.29,3.89-2.32,2.6-5.74c-.87-2.28-7.27.3-10.9,1.62l-.67.09a6.83,6.83,0,0,1-1.67.17c1.78-2.21,15.68-11.95,13.68-17.07s-8.55-1.09-8.55-1.09,2.83-14.51-1.92-16.94v0l0,0-.16-.09c-5-2.15-13.32,10.81-13.32,10.81s-4-7.79-7-5.12-2,21.76-2,21.76-5.26-11.11-8.2-10.57-2.11,6-2.11,6-7.11-5.08-9.21-3,2.86,11.79,2.86,11.79-4.57-1.53-6.21,2.47c-.92,2.23,14.34,9.78,14.34,9.79s-7,2.33-5.75,4.57S968,418.86,968,418.86l-4.3,7.88c-1.3,2.38-2.39,4.4-2.43,4.51s6,2.41,6,2.42.51-1.84,1.13-4.1l2.63-9.48s10.51,7.16,13.12,5.23-1.1-7.37-1.1-7.37,15.5,7.61,17.28,3-2.75-6.13-2.75-6.13" transform="translate(-17.78 -364.75)"/><path class="cls-4" d="M857.37,392.22s.68-10.25-3.36-11.56-6.52,7.18-6.52,7.18-1.13-4.37-4.77-4.06c-2.42.21-1.73,7.06-1.48,10.9l-.09.67a6.72,6.72,0,0,1-.31,1.65c-1.62-2.31-7.07-18.3-12.52-17.77s-3.43,7.91-3.43,7.91-13.08-6.66-16.73-2.76h0v0c0,.05-.09.08-.13.13-3.45,4.22,6.64,15.73,6.64,15.73s-8.55,1.68-6.83,5.3,20.25,7.86,20.25,7.86-12.09,2-12.39,5,5.14,3.66,5.14,3.66-6.84,5.43-5.42,8,12.07.46,12.07.46-2.73,4,.64,6.63c1.88,1.49,13.34-11.1,13.34-11.1s.29,7.36,2.78,6.76,8.78-11.1,8.78-11.1l6.34,6.27c1.92,1.89,3.55,3.5,3.64,3.57s4-5.06,4-5.13l-3.61-2.2-8.34-5.1s9.77-8.14,8.65-11.17-7.35-1-7.35-1,11.58-12.8,7.65-15.77-6.62,1-6.62,1" transform="translate(-17.78 -364.75)"/><path class="cls-5" d="M946.43,494.35s.68-10.26-3.36-11.56-6.52,7.17-6.52,7.17-1.13-4.36-4.77-4c-2.42.21-1.73,7.06-1.48,10.9l-.09.67a6.94,6.94,0,0,1-.31,1.65c-1.62-2.32-7.07-18.3-12.52-17.78s-3.43,7.92-3.43,7.92-13.08-6.67-16.73-2.77h0v0l-.12.13c-3.45,4.21,6.64,15.72,6.64,15.72s-8.55,1.69-6.83,5.31,20.25,7.86,20.25,7.86-12.09,2-12.39,5,5.14,3.65,5.14,3.65-6.84,5.44-5.42,8,12.07.47,12.07.47-2.73,4,.64,6.63c1.88,1.49,13.34-11.1,13.34-11.1s.29,7.35,2.78,6.75,8.78-11.09,8.78-11.09l6.34,6.26c1.92,1.9,3.55,3.5,3.64,3.57s4-5.06,4-5.12l-3.61-2.2-8.34-5.1s9.77-8.14,8.65-11.17-7.35-1-7.35-1,11.58-12.81,7.65-15.77-6.62,1-6.62,1" transform="translate(-17.78 -364.75)"/><path class="cls-4" d="M332.43,575s.68-10.26-3.36-11.56-6.52,7.17-6.52,7.17-1.13-4.36-4.77-4.05c-2.42.21-1.73,7.06-1.48,10.9l-.09.67a6.94,6.94,0,0,1-.31,1.65c-1.62-2.32-7.07-18.3-12.52-17.78s-3.43,7.92-3.43,7.92-13.08-6.67-16.73-2.77h0v0l-.12.13c-3.45,4.21,6.64,15.72,6.64,15.72s-8.55,1.69-6.83,5.31,20.25,7.86,20.25,7.86-12.09,2-12.39,5,5.14,3.65,5.14,3.65-6.84,5.44-5.42,8,12.07.47,12.07.47-2.73,4,.64,6.63c1.88,1.49,13.34-11.1,13.34-11.1s.29,7.35,2.78,6.75,8.78-11.09,8.78-11.09l6.34,6.26c1.92,1.9,3.55,3.5,3.64,3.57s4-5.06,4-5.12l-3.61-2.2-8.34-5.1s9.77-8.14,8.65-11.17-7.35-1-7.35-1S343,577,339.05,574s-6.62,1-6.62,1" transform="translate(-17.78 -364.75)"/><path class="cls-4" d="M84.61,377.76s.68-10.26-3.36-11.56-6.52,7.17-6.52,7.17S73.6,369,70,369.32c-2.43.21-1.73,7.06-1.48,10.9l-.09.67a7.37,7.37,0,0,1-.31,1.65c-1.62-2.31-7.08-18.3-12.53-17.77s-3.42,7.91-3.42,7.91S39.05,366,35.41,369.91h0v0a.74.74,0,0,0-.12.13c-3.45,4.21,6.63,15.73,6.63,15.73s-8.55,1.68-6.83,5.3S55.33,399,55.33,399s-12.1,2-12.4,5,5.15,3.65,5.15,3.65-6.84,5.44-5.42,8,12.07.47,12.07.47-2.74,4,.63,6.63c1.89,1.49,13.34-11.1,13.34-11.1s.3,7.35,2.79,6.76,8.78-11.1,8.78-11.1l6.34,6.26c1.91,1.9,3.54,3.5,3.64,3.57s4-5.06,4-5.12l-3.6-2.2-8.35-5.1s9.78-8.14,8.65-11.17-7.35-.95-7.35-.95,11.58-12.8,7.66-15.77-6.63,1-6.63,1" transform="translate(-17.78 -364.75)"/><path class="cls-6" d="M387.93,515.28s7-4.49,5.79-7.59-8-.57-8-.57,2.25-2.78.21-4.86c-1.36-1.39-5.45,2.32-7.82,4.31l-.47.27a6.11,6.11,0,0,1-1.23.6c.68-2.1,8.28-13.1,5.18-16.19s-6.86,1.69-6.86,1.69-2.31-11.21-6.69-11.58v0l-.14,0c-4.48-.09-6.84,11.61-6.84,11.61s-5.41-4.44-6.89-1.66,5.16,16.19,5.16,16.19-7.43-6.45-9.51-5.21.23,4.9.23,4.9-7-1.59-7.94.52,5.81,7.62,5.81,7.62-3.95.22-4,3.57c0,1.87,13.95,2.86,13.95,2.86s-4.62,3.7-3,4.94,11.64.07,11.64.07l-.85,6.89c-.26,2.08-.48,3.85-.47,3.94s5.28,0,5.34,0-.18-1.47-.4-3.27l-.92-7.55s10.23,2.09,11.62,0-3.11-5-3.11-5,14.17,1,14.1-2.85-4-3.6-4-3.6" transform="translate(-17.78 -364.75)"/><path class="cls-6" d="M157.79,499.36s7-4.49,5.8-7.6-8-.56-8-.56,2.26-2.78.22-4.86c-1.37-1.39-5.45,2.32-7.82,4.31l-.48.27a5.86,5.86,0,0,1-1.23.6c.69-2.1,8.29-13.1,5.19-16.19s-6.87,1.69-6.87,1.69-2.3-11.21-6.68-11.58v0l-.14,0C133.31,465.33,131,477,131,477s-5.42-4.43-6.89-1.65,5.16,16.19,5.16,16.19-7.44-6.45-9.52-5.21.24,4.9.24,4.9-7-1.59-7.94.52,5.81,7.62,5.81,7.62-4,.22-4,3.57c0,1.87,14,2.86,14,2.86s-4.62,3.7-3,4.94,11.64.07,11.64.07l-.85,6.89c-.25,2.08-.47,3.85-.46,3.94s5.28,0,5.33,0-.17-1.47-.39-3.27l-.93-7.55s10.23,2.09,11.62-.05-3.1-5-3.1-5,14.16,1,14.1-2.85-4-3.6-4-3.6" transform="translate(-17.78 -364.75)"/><path class="cls-6" d="M320.93,425.82s7-4.5,5.79-7.6-8-.56-8-.56,2.25-2.78.21-4.86c-1.36-1.39-5.45,2.32-7.82,4.31l-.47.27a6.11,6.11,0,0,1-1.23.6c.68-2.1,8.28-13.11,5.18-16.19s-6.86,1.69-6.86,1.69-2.31-11.21-6.69-11.58v0h-.15c-4.48-.1-6.84,11.6-6.84,11.6s-5.41-4.43-6.89-1.65S292.36,418,292.36,418s-7.43-6.44-9.51-5.2.23,4.9.23,4.9-7-1.59-7.94.52,5.81,7.62,5.81,7.62-3.95.22-4,3.57c0,1.86,13.95,2.86,13.95,2.86s-4.62,3.7-3,4.94,11.64.07,11.64.07l-.85,6.88c-.26,2.09-.48,3.85-.47,3.95s5.28,0,5.34,0-.18-1.46-.4-3.26l-.92-7.56s10.23,2.09,11.62,0-3.11-5-3.11-5,14.17,1,14.1-2.86-4-3.59-4-3.59" transform="translate(-17.78 -364.75)"/><path class="cls-6" d="M1043.35,502.64s4.8-6.79,2.52-9.22-7.58,2.46-7.58,2.46,1-3.43-1.63-4.59c-1.78-.77-4.18,4.19-5.63,6.93l-.34.42c-.26.32-.84,1.06-.92,1-.15-2.2,2.77-15.25-1.26-17s-5.73,4.14-5.73,4.14-6.34-9.53-10.53-8.24h0v0l-.14,0c-4.19,1.59-2,13.32-2,13.32s-6.69-2.09-7,1,10.84,13.07,10.84,13.07-9.3-3.19-10.77-1.26,2.06,4.45,2.06,4.45-7.07,1.15-7.17,3.46,8.24,4.89,8.24,4.89-3.58,1.69-2.35,4.8c.69,1.73,14-2.58,14-2.58s-2.9,5.16-.9,5.7,10.81-4.3,10.81-4.3l1.79,6.7c.55,2,1,3.75,1,3.83s4.9-2,4.94-2-.71-1.29-1.59-2.88l-3.68-6.66s10.26-1.89,10.75-4.4-4.74-3.43-4.74-3.43,13.5-4.41,12-7.93-5-1.84-5-1.84" transform="translate(-17.78 -364.75)"/><path class="cls-6" d="M827.28,598.64s7-4.86,5.79-8.21-8-.61-8-.61,2.25-3,.21-5.26c-1.36-1.5-5.45,2.51-7.82,4.66l-.47.29a5.32,5.32,0,0,1-1.23.65c.68-2.27,8.28-14.16,5.18-17.5s-6.86,1.83-6.86,1.83-2.31-12.12-6.69-12.52v0l-.15,0c-4.48-.1-6.83,12.54-6.83,12.54s-5.42-4.79-6.9-1.78,5.16,17.49,5.16,17.49-7.43-7-9.51-5.63.23,5.3.23,5.3-7-1.72-7.94.56,5.81,8.24,5.81,8.24-3.95.24-4,3.86c0,2,13.95,3.09,13.95,3.09s-4.62,4-3,5.34S806,611,806,611l-.85,7.44c-.26,2.26-.48,4.17-.47,4.27s5.28,0,5.34,0-.18-1.58-.4-3.53l-.92-8.16s10.23,2.26,11.62-.06-3.11-5.36-3.11-5.36,14.17,1,14.1-3.09a3.7,3.7,0,0,0-4-3.88" transform="translate(-17.78 -364.75)"/><path class="cls-5" d="M725,562.52s7-4.86,5.79-8.21-7.95-.61-7.95-.61,2.26-3,.22-5.25c-1.37-1.5-5.46,2.5-7.82,4.66l-.48.28a5.93,5.93,0,0,1-1.23.66c.68-2.28,8.28-14.17,5.18-17.5s-6.86,1.82-6.86,1.82-2.31-12.12-6.68-12.51v0H705c-4.48-.11-6.83,12.54-6.83,12.54s-5.42-4.8-6.9-1.79,5.16,17.49,5.16,17.49-7.43-7-9.51-5.62.24,5.3.24,5.3-7-1.72-7.95.56,5.82,8.23,5.82,8.23-4,.24-4,3.86c0,2,14,3.09,14,3.09s-4.62,4-3,5.34,11.64.08,11.64.08l-.85,7.44c-.26,2.25-.47,4.16-.47,4.26s5.29,0,5.34,0-.18-1.58-.4-3.53l-.92-8.17s10.23,2.26,11.62,0-3.1-5.36-3.1-5.36,14.16,1,14.1-3.09a3.7,3.7,0,0,0-4-3.89" transform="translate(-17.78 -364.75)"/><path class="cls-5" d="M60.27,512.7s1.95-8.29-1.19-10-6.31,4.87-6.31,4.87-.34-3.75-3.36-4c-2-.2-2.37,5.51-2.69,8.7,0,.17-.11.35-.16.53a5.66,5.66,0,0,1-.48,1.3c-1-2.14-3.32-16.06-7.86-16.47s-3.88,5.95-3.88,5.95-9.82-7.46-13.34-4.83h0l-.11.09c-3.4,2.92,3.31,13.89,3.31,13.89s-7.24.06-6.32,3.29,15.54,9.54,15.54,9.54-10.19-.2-10.84,2.19,3.72,3.78,3.72,3.78-6.34,3.4-5.52,5.73,9.83,2.23,9.83,2.23-2.78,2.83-.38,5.53c1.35,1.5,12.44-7,12.44-7s-.76,6.06,1.37,6,8.7-7.74,8.7-7.74l4.34,6.1c1.32,1.85,2.44,3.41,2.51,3.48s3.92-3.53,4-3.58l-2.66-2.36-6.15-5.45s9.11-5.16,8.6-7.81-5.9-1.91-5.9-1.91,11.23-8.7,8.42-11.73a3.71,3.71,0,0,0-5.57-.22" transform="translate(-17.78 -364.75)"/><path class="cls-4" d="M953.29,621.71s8.3-1.88,8.44-5.44-7.14-3.55-7.14-3.55,3.22-1.94,2.17-4.79c-.71-1.9-6,.28-9,1.4l-.55.08a5.74,5.74,0,0,1-1.38.15c1.48-1.86,13-10,11.36-14.29s-7.05-.88-7.05-.88,2.4-12.1-1.51-14.11v0l-.13-.07c-4.12-1.78-11,9.06-11,9.06s-3.22-6.47-5.72-4.23S930,603.19,930,603.19s-4.28-9.25-6.71-8.78-1.77,5-1.77,5-5.83-4.21-7.57-2.46,2.3,9.82,2.3,9.82-3.76-1.26-5.13,2.08c-.77,1.87,11.78,8.1,11.78,8.1s-5.78,2-4.76,3.83,10.77,4.43,10.77,4.43l-3.58,6.59c-1.08,2-2,3.68-2,3.77s4.9,2,5,2,.42-1.53.95-3.42l2.2-7.92s8.64,5.93,10.8,4.3-.87-6.13-.87-6.13,12.74,6.27,14.23,2.42a3.71,3.71,0,0,0-2.24-5.1" transform="translate(-17.78 -364.75)"/><path class="cls-3" d="M1004,707.18s8.3-1.89,8.44-5.44-7.14-3.55-7.14-3.55,3.22-1.94,2.16-4.79c-.7-1.9-6,.28-9,1.39l-.55.09a5.12,5.12,0,0,1-1.38.14c1.48-1.85,13-10,11.36-14.28s-7-.88-7-.88,2.4-12.1-1.51-14.11v0h0l-.13-.07c-4.12-1.77-11,9.07-11,9.07s-3.23-6.47-5.72-4.24-1.77,18.15-1.77,18.15-4.28-9.24-6.71-8.78-1.77,5-1.77,5-5.83-4.2-7.57-2.45,2.3,9.81,2.3,9.81-3.76-1.25-5.13,2.09c-.77,1.87,11.78,8.09,11.78,8.09s-5.78,2-4.76,3.84,10.77,4.43,10.77,4.43L976,717.26c-1.08,2-2,3.69-2,3.78s4.9,2,5,2,.42-1.53,1-3.43l2.2-7.91s8.64,5.93,10.8,4.3-.87-6.13-.87-6.13,12.74,6.27,14.23,2.41a3.7,3.7,0,0,0-2.24-5.09" transform="translate(-17.78 -364.75)"/><path class="cls-4" d="M268.12,521.73s7.6-3.84,6.88-7.32-7.79-1.71-7.79-1.71,2.65-2.67.94-5.18c-1.14-1.67-5.75,1.73-8.39,3.53l-.51.22a5.56,5.56,0,0,1-1.31.47c1-2.15,10.17-12.87,7.57-16.61s-7.05.86-7.05.86-.6-12.32-4.88-13.33v0l0,0-.14,0c-4.42-.73-8.51,11.47-8.51,11.47s-4.7-5.5-6.58-2.73,2.68,18,2.68,18-6.39-7.93-8.64-6.9-.5,5.28-.5,5.28-6.68-2.67-8-.55,4.61,9,4.61,9-3.95-.31-4.47,3.27c-.29,2,13.38,5,13.38,5s-5.13,3.32-3.68,4.87,11.51,1.7,11.51,1.7l-1.88,7.25c-.56,2.19-1,4.06-1,4.15s5.23.74,5.29.73,0-1.59.09-3.55l.23-8.21s9.81,3.66,11.51,1.56-2.33-5.74-2.33-5.74,13.88,3,14.4-1.1a3.71,3.71,0,0,0-3.41-4.4" transform="translate(-17.78 -364.75)"/><path class="cls-6" d="M63.12,661.89s7.6-3.83,6.88-7.32-7.79-1.71-7.79-1.71,2.65-2.66.94-5.17c-1.14-1.68-5.75,1.72-8.39,3.52l-.51.22a5.56,5.56,0,0,1-1.31.47c1-2.15,10.17-12.87,7.57-16.6s-7,.85-7,.85-.6-12.32-4.88-13.33h0l-.14,0c-4.42-.72-8.51,11.47-8.51,11.47s-4.7-5.5-6.58-2.72,2.68,18,2.68,18-6.39-7.93-8.64-6.89-.5,5.28-.5,5.28-6.68-2.68-7.95-.55,4.61,9,4.61,9-4-.31-4.47,3.27c-.29,2,13.38,5,13.38,5s-5.13,3.32-3.68,4.88,11.51,1.69,11.51,1.69l-1.88,7.25c-.56,2.2-1,4.06-1,4.16s5.23.73,5.29.73,0-1.59.09-3.55l.23-8.22s9.81,3.66,11.51,1.57-2.33-5.75-2.33-5.75,13.88,3,14.4-1.09a3.71,3.71,0,0,0-3.41-4.41" transform="translate(-17.78 -364.75)"/><path class="cls-5" d="M1054.67,627.9s8.3-1.88,8.44-5.44-7.14-3.54-7.14-3.54,3.21-1.95,2.16-4.79c-.7-1.91-6,.28-9,1.39l-.55.09a6.18,6.18,0,0,1-1.38.14c1.48-1.85,13-10,11.35-14.29s-7-.87-7-.87,2.4-12.1-1.51-14.11v0h0l-.12-.07c-4.12-1.78-11,9.07-11,9.07s-3.23-6.48-5.73-4.24-1.76,18.15-1.76,18.15-4.28-9.24-6.71-8.78-1.77,5-1.77,5-5.83-4.21-7.58-2.46,2.31,9.82,2.31,9.82-3.76-1.26-5.13,2.09c-.77,1.86,11.77,8.09,11.78,8.09s-5.79,2-4.76,3.84,10.76,4.43,10.76,4.43l-3.57,6.58c-1.09,2-2,3.68-2,3.77s4.89,2,4.95,2,.43-1.53,1-3.42l2.21-7.92s8.64,5.93,10.79,4.31-.87-6.14-.87-6.14,12.74,6.28,14.24,2.42a3.71,3.71,0,0,0-2.24-5.1" transform="translate(-17.78 -364.75)"/></g></svg>