<?xml version="1.0" encoding="utf-8"?>
<!-- Generator: Adobe Illustrator 24.2.3, SVG Export Plug-In . SVG Version: 6.00 Build 0)  -->
<svg version="1.1" id="Layer_1" xmlns="http://www.w3.org/2000/svg" xmlns:xlink="http://www.w3.org/1999/xlink" x="0px" y="0px"
	 viewBox="0 0 1080 1080" style="enable-background:new 0 0 1080 1080;" xml:space="preserve">
<style type="text/css">
	.st0{fill:#9B3721;}
	.st1{display:none;}
	.st2{display:inline;}
	.st3{fill:#FFFFFF;}
	.st4{fill:#F4F5F5;}
	.st5{fill:#8BC24A;}
	.st6{fill:#FEFFFE;}
	.st7{fill:#FBFDFA;}
</style>
<circle class="st0" cx="537.5" cy="542" r="397.3"/>
<g id="Layer_1_1_" class="st1">
	<g class="st2">
		<path class="st3" d="M120.1,980.4c0-293.3,0-586.7,0-880c280,0,560,0,840,0c0,293.3,0,586.7,0,880
			C680.1,980.4,400.1,980.4,120.1,980.4z M940.1,540.6c0.1-224.8-180.2-404.2-407.5-400.2C312,144.3,135.9,322.8,140.2,548.6
			c4.2,219.4,181.5,395.8,407.9,391.6C767.6,936.3,939.9,760.4,940.1,540.6z"/>
		<path class="st0" d="M940.1,540.6c-0.2,219.8-172.5,395.6-392,399.7c-226.4,4.1-403.8-172.2-407.9-391.6
			C135.9,322.8,312,144.3,532.6,140.5C760,136.5,940.2,315.8,940.1,540.6z"/>
		<path d="M540.1,872c9.2-0.5,19.9-1,30.5-1.7c4.6-0.3,9.3-1.1,13.9-1.8c79.8-12,146-50,202.3-106.5c16.3-16.4,15.8-43.4,0.1-60.4
			c-4-4.3-7.9-8.6-12.1-12.7c-53.7-53.4-116.7-89-192.5-99.8c-44.9-6.4-89.1-2.8-132.3,10.5c-62.1,19.2-113.6,54.7-157.1,102.4
			c-15.2,16.6-15.3,42.7-0.1,59.3C358.8,833.5,440.8,870.2,540.1,872z"/>
		<path d="M539.6,529c61.4,0.8,113.8-50.2,114.6-111.6c0.8-63.4-49.2-116.2-110.8-117c-64.2-0.8-116.6,49.1-117.4,111.9
			C425.1,476.5,475.4,528.1,539.6,529z"/>
		<path class="st4" d="M540.1,872c-99.2-1.8-181.2-38.5-247.3-110.6c-15.2-16.6-15-42.7,0.1-59.3c43.5-47.7,95.1-83.2,157.1-102.4
			c43.3-13.4,87.5-16.9,132.3-10.5c75.8,10.8,138.8,46.4,192.5,99.8c4.1,4.1,8.1,8.4,12.1,12.7c15.7,17,16.2,44-0.1,60.4
			c-56.3,56.5-122.5,94.5-202.3,106.5c-4.6,0.7-9.2,1.5-13.9,1.8C560,871,549.3,871.5,540.1,872z"/>
		<path class="st4" d="M539.6,529c-64.2-0.8-114.5-52.4-113.6-116.7c0.8-62.8,53.2-112.7,117.4-111.9C605,301.2,655,354,654.2,417.3
			C653.4,478.7,601,529.7,539.6,529z"/>
	</g>
</g>
<path class="st0" d="M574.1,940.2c-22.4,0-44.8,0-67.2,0c-0.8-1.9-2.6-1.5-4.1-1.6c-17-1.7-33.8-4.3-50.4-8
	C291.7,894.8,167.8,761,144.6,598.3c-1.3-9.3-1.1-18.9-4.4-27.9c0-20.8,0-41.6,0-62.4c2.7-1.2,1.5-3.7,1.8-5.6
	c2.2-14.5,3.6-29.1,6.6-43.5C183.9,288,327.8,158.3,501.4,141.8c78.9-7.5,153.8,7,224.4,43.6c164,85.1,248.7,274.2,202.8,453.4
	C888.5,795.4,760.2,911.6,600.4,936C591.6,937.3,582.5,936.9,574.1,940.2z"/>
<path class="st5" d="M554.4,627c28.8,0,57.6-0.1,86.4,0.1c4.6,0,7.1-1,8.7-5.8c19-58.4,38.2-116.7,57.6-175c1.8-5.4,0.3-6.3-4.7-6.2
	c-22.4,0.4-44.8,0.6-67.2,0.6c-66.1,0.1-132.3,0.1-198.4,0.3c-4.5,0-6.5-1.4-7.8-5.7c-5.6-18-11.6-35.9-17.2-53.9
	c-1.4-4.4-3.3-6.4-8.3-6.4c-29.6,0.3-59.2,0.2-88.8,0c-4.6,0-6.8,0.8-6.4,6c0.5,6.4,0.5,12.8,0,19.2c-0.4,5.5,1.8,6.7,6.8,6.6
	c20.5-0.2,41.1,0.2,61.6-0.3c7.4-0.2,10.9,1.8,13.7,9.2c25.1,66.2,46,133.8,68.3,200.9c2.8,8.4,6.5,10.7,15,10.6
	C500.6,626.7,527.5,627,554.4,627z"/>
<path class="st5" d="M501,704.9c17.4,0.2,31.3-13,31.5-30.1c0.2-17.6-13.7-32.1-30.8-32c-16.7,0.1-31,14.6-31,31.3
	C470.8,690.9,484.3,704.7,501,704.9z"/>
<path class="st5" d="M609.2,704.9c17.3,0,30.8-13.3,30.8-30.7c0.1-17.3-13.5-31.2-30.5-31.4c-16.7-0.2-30.8,14-30.8,31.1
	C578.6,691.4,591.8,704.8,609.2,704.9z"/>
<path class="st6" d="M140.3,570.4c3.2,9,3,18.6,4.4,27.9c23.1,162.7,147,296.5,307.7,332.3c16.7,3.7,33.5,6.3,50.4,8
	c1.5,0.2,3.3-0.3,4.1,1.6c-120.1,0-240.1,0-360.2,0.2c-5.5,0-6.6-1.1-6.6-6.6C140.3,812.7,140.3,691.5,140.3,570.4z"/>
<path class="st6" d="M554.4,627c-26.9,0-53.9-0.4-80.8,0.2c-8.5,0.2-12.2-2.1-15-10.6c-22.3-67.1-43.2-134.7-68.3-200.9
	c-2.8-7.4-6.3-9.4-13.7-9.2c-20.5,0.5-41.1,0-61.6,0.3c-5.1,0.1-7.2-1.1-6.8-6.6c0.5-6.4,0.5-12.8,0-19.2c-0.4-5.3,1.8-6.1,6.4-6
	c29.6,0.2,59.2,0.2,88.8,0c5.1,0,7,2,8.3,6.4c5.6,18,11.7,35.9,17.2,53.9c1.3,4.3,3.3,5.7,7.8,5.7c66.1-0.2,132.3-0.1,198.4-0.3
	c22.4,0,44.8-0.3,67.2-0.6c5-0.1,6.5,0.7,4.7,6.2c-19.4,58.3-38.6,116.6-57.6,175c-1.6,4.8-4.1,5.9-8.7,5.8
	C612,626.9,583.2,627,554.4,627z"/>
<path class="st7" d="M501,704.9c-16.7-0.2-30.2-14-30.3-30.8c-0.1-16.7,14.3-31.2,31-31.3c17.1-0.1,31,14.4,30.8,32
	C532.3,691.9,518.4,705.1,501,704.9z"/>
<path class="st7" d="M609.2,704.9c-17.4,0-30.5-13.4-30.5-31c0.1-17.1,14.1-31.2,30.8-31.1c17,0.2,30.5,14.1,30.5,31.4
	C639.9,691.5,626.5,704.9,609.2,704.9z"/>
</svg>
