<svg id="Layer_1" data-name="Layer 1" xmlns="http://www.w3.org/2000/svg" xmlns:xlink="http://www.w3.org/1999/xlink" viewBox="0 0 130.35 141.53"><defs><style>.cls-1{fill:none;}.cls-2{clip-path:url(#clip-path);}.cls-3{fill:#b36427;}</style><clipPath id="clip-path" transform="translate(-474.67 -469.72)"><rect class="cls-1" x="474.67" y="469.72" width="130.35" height="141.53"/></clipPath></defs><g class="cls-2"><path class="cls-3" d="M590.1,555.11S607.7,543.8,604.67,536s-20-1.42-20-1.42,5.67-7,.53-12.23c-3.43-3.49-13.71,5.83-19.66,10.85l-1.2.67c-.91.5-3,1.67-3.09,1.51,1.71-5.29,20.83-33,13-40.73S557,498.9,557,498.9s-5.8-28.21-16.81-29.14l0,0,0,0c-.12,0-.24,0-.36,0-11.28-.24-17.2,29.19-17.2,29.19s-13.63-11.16-17.35-4.15,13,40.71,13,40.71-18.7-16.22-23.94-13.09.6,12.33.6,12.33-17.58-4-20,1.3,14.63,19.18,14.63,19.18-9.95.56-10,9c0,4.7,35.09,7.2,35.1,7.2h0s-11.63,9.31-7.48,12.43,29.28.18,29.28.18l-2.13,17.32c-.65,5.24-1.19,9.69-1.18,9.92.24.09,13.29,0,13.43,0s-.45-3.68-1-8.22l-2.32-19s25.74,5.27,29.24-.12-7.81-12.48-7.81-12.48,35.63,2.43,35.47-7.19-10-9-10-9" transform="translate(-474.67 -469.72)"/></g></svg>