<svg id="Layer_1" data-name="Layer 1" xmlns="http://www.w3.org/2000/svg" viewBox="0 0 794.66 794.66"><defs><style>.cls-1{fill:#9c3822;}.cls-2{fill:#f6f6f6;}</style></defs><circle class="cls-1" cx="397.33" cy="397.33" r="397.33"/><path class="cls-2" d="M282.83,160.36h46.34a77.47,77.47,0,0,0,7.65,2.1c95.65,16,159.09,70.18,190.51,161.63,5,14.44,7,29.87,10.42,44.85v46.35c-.85,3.73-1.85,7.43-2.53,11.2Q510.49,563.7,379.56,611.6c-16.14,5.88-33.56,8.26-50.39,12.26H282.83a87.92,87.92,0,0,0-8.93-2.17A230.53,230.53,0,0,1,82.78,453.47c-3.39-12.58-5.71-25.45-8.53-38.18V366.62a42.71,42.71,0,0,0,2-6.46C90.89,263.59,159.11,189,253.7,166.45,263.34,164.15,273.11,162.38,282.83,160.36ZM466,514.05c50-55.07,69.65-179.52-18-266.11-81.78-80.8-215.36-77.06-292,8-80.53,89.43-56.73,209.6-8.72,259.39,1.18-2.08,2.33-4.07,3.43-6.09,23.77-43.8,60.54-68.74,110.14-71.84,31.13-1.94,62.53-1,93.74.23,32.33,1.32,59.52,15.85,81.69,38.79C447.47,487.89,456.3,501.53,466,514.05Z" transform="translate(91.33 1.33)"/><path class="cls-2" d="M306,247.17c47.78,0,87.27,38.91,87.62,86.42.35,48.58-39.55,88.48-88.22,88.24-47.66-.24-87.23-39.77-87.06-87C218.54,286.59,257.92,247.2,306,247.17Z" transform="translate(91.33 1.33)"/></svg>