<svg id="Layer_1" data-name="Layer 1" xmlns="http://www.w3.org/2000/svg" xmlns:xlink="http://www.w3.org/1999/xlink" viewBox="0 0 189 73"><defs><style>.cls-1{fill:none;}.cls-2{clip-path:url(#clip-path);}.cls-3{fill:#9a3720;}</style><clipPath id="clip-path" transform="translate(-445.6 -503.89)"><rect class="cls-1" x="445.6" y="503.89" width="189" height="73"/></clipPath></defs><g class="cls-2"><path class="cls-3" d="M528,540.39a6,6,0,0,1-1,3.65,4.92,4.92,0,0,1-3,1.85,9.51,9.51,0,0,1-3,.1,7.32,7.32,0,0,1-3.85-1.07,5.2,5.2,0,0,1-2-2.44h-.24a10.44,10.44,0,0,1-2.7,2.23,10.62,10.62,0,0,1-3.61,1.23,12.31,12.31,0,0,1-2.66.19A7.13,7.13,0,0,1,501,544.4a5.35,5.35,0,0,1-1.73-4.06,6.23,6.23,0,0,1,1.14-3.8,7.8,7.8,0,0,1,4-2.51c.64-.19,1.22-.38,1.76-.57q2.9-.94,4.56-1.56a15.63,15.63,0,0,0,2.47-1.12,2.35,2.35,0,0,0,1-1,3.29,3.29,0,0,0,.22-1.23v-.24a5.14,5.14,0,0,0-.58-2.14,4,4,0,0,0-1.68-1.63,6.56,6.56,0,0,0-3.16-.64h-.28a6.2,6.2,0,0,0-2.12.4,9.84,9.84,0,0,0-1.49.74,4.07,4.07,0,0,1,.68.14,1.68,1.68,0,0,1,.55.28,2.25,2.25,0,0,1,1.05.93,2.87,2.87,0,0,1,.38,1.49,2.8,2.8,0,0,1-1.12,2.42,4.5,4.5,0,0,1-3.61.69,4.13,4.13,0,0,1-.88-.31,3.41,3.41,0,0,1-1.38-1.23,3.59,3.59,0,0,1-.52-1.95v-.21a.46.46,0,0,1,0-.21,5.08,5.08,0,0,1,1.42-3,9.28,9.28,0,0,1,3.73-2.28,18.56,18.56,0,0,1,6.15-.87c3.48,0,6.17.64,8.05,1.94s2.92,3.46,3.11,6.5v11.25a2.75,2.75,0,0,0,.36,1.61,1.19,1.19,0,0,0,1,.47h.07s0,0,.07,0a1.19,1.19,0,0,0,.86-.5,2.72,2.72,0,0,0,.38-1.45,2.42,2.42,0,0,1,0-.38,2.42,2.42,0,0,0,0-.38v-1.37H528Zm-17.33,1.71a4,4,0,0,0,2.39-.81,3.26,3.26,0,0,0,1.31-2.37c0-.22,0-.46.07-.71s0-.51,0-.76v-4.37c-.76.35-1.49.67-2.19.95s-1.34.58-1.92.88a7.62,7.62,0,0,0-1.5,1,3.64,3.64,0,0,0-.95,1.23,4.08,4.08,0,0,0-.33,1.71,3.27,3.27,0,0,0,.85,2.45,3.1,3.1,0,0,0,2.24.83" transform="translate(-445.6 -503.89)"/><path class="cls-3" d="M541.8,521.84v20a1.69,1.69,0,0,0,.38,1.23,1.3,1.3,0,0,0,1,.38h2.14v2.66H529.93v-2.66h2.13a1.37,1.37,0,0,0,1-.38,1.69,1.69,0,0,0,.38-1.23v-15.8a1.72,1.72,0,0,0-.38-1.21,1.31,1.31,0,0,0-1-.41h-2.13v-2.61Z" transform="translate(-445.6 -503.89)"/><path class="cls-3" d="M536.5,520.23a4.72,4.72,0,0,1-3.33-1.19,4.5,4.5,0,0,1,0-6.29,4.79,4.79,0,0,1,3.33-1.16,4.86,4.86,0,0,1,3.37,1.16,4.5,4.5,0,0,1,0,6.29,4.78,4.78,0,0,1-3.37,1.19" transform="translate(-445.6 -503.89)"/><path class="cls-3" d="M570.44,537.83a7.49,7.49,0,0,1-1.36,4.49,8.44,8.44,0,0,1-3.68,2.85,13.71,13.71,0,0,1-5.27,1,11.8,11.8,0,0,1-4.46-.83,13.05,13.05,0,0,1-3.9-2.54l-.47,2.89h-2.95v-8.4h3a10.12,10.12,0,0,0,3.08,4.09,8.2,8.2,0,0,0,5.23,1.61,5.61,5.61,0,0,0,2.92-.67,2.21,2.21,0,0,0,1.11-2,2.31,2.31,0,0,0-.83-1.87,6.65,6.65,0,0,0-2.23-1.14c-.94-.3-2-.57-3-.81s-2.19-.52-3.3-.87a14.15,14.15,0,0,1-3.06-1.36A6.3,6.3,0,0,1,549,532a7.39,7.39,0,0,1,.41-7.5,8,8,0,0,1,3.42-2.65,12.37,12.37,0,0,1,5-1,11.43,11.43,0,0,1,4.2.73,12.33,12.33,0,0,1,3.49,2.11l.38-2.37h3v7.31h-3a7.36,7.36,0,0,0-3-3.39,8.88,8.88,0,0,0-5-1.4,4.72,4.72,0,0,0-2.59.56,1.8,1.8,0,0,0-.83,1.57,1.9,1.9,0,0,0,.85,1.61,7.58,7.58,0,0,0,2.28,1c1,.28,2,.54,3.13.78a25.65,25.65,0,0,1,3.4.95,15.23,15.23,0,0,1,3.09,1.49,7.35,7.35,0,0,1,2.28,2.33,6.81,6.81,0,0,1,.88,3.6" transform="translate(-445.6 -503.89)"/><path class="cls-3" d="M600.31,533.52a12.63,12.63,0,0,1-1.76,6.8,11.45,11.45,0,0,1-4.77,4.32,16,16,0,0,1-13.54,0,11.45,11.45,0,0,1-4.77-4.32,14.09,14.09,0,0,1,0-13.64,11.65,11.65,0,0,1,4.77-4.29,16.13,16.13,0,0,1,13.54,0,11.65,11.65,0,0,1,4.77,4.29,12.65,12.65,0,0,1,1.76,6.84m-17.86-.15q0,5.18,1.14,7.64a3.62,3.62,0,0,0,6.86,0q1.13-2.46,1.12-7.64,0-5-1.12-7.45a3.65,3.65,0,0,0-6.86,0q-1.14,2.43-1.14,7.45" transform="translate(-445.6 -503.89)"/><path class="cls-3" d="M616.6,543.48v2.66H602.35v-2.66h2.14a1.34,1.34,0,0,0,1-.38,1.65,1.65,0,0,0,.38-1.23v-15.8a1.67,1.67,0,0,0-.38-1.21,1.29,1.29,0,0,0-1-.41h-2.14v-2.61h11.59V526h.23a12.35,12.35,0,0,1,3.73-3.32,9.83,9.83,0,0,1,5-1.28,7.64,7.64,0,0,1,5.94,2.23c1.36,1.49,2,3.65,2,6.5v11.81a1.63,1.63,0,0,0,.38,1.19,1.37,1.37,0,0,0,1,.38h2.13v2.66H620.16v-2.66h1a1.3,1.3,0,0,0,.95-.38,1.69,1.69,0,0,0,.38-1.23V529a3.59,3.59,0,0,0-.73-2.42,2.85,2.85,0,0,0-2.26-.86,4.58,4.58,0,0,0-3,1.21,9.55,9.55,0,0,0-2.3,3.06v11.87a1.74,1.74,0,0,0,.36,1.23,1.26,1.26,0,0,0,1,.38Z" transform="translate(-445.6 -503.89)"/><path class="cls-3" d="M465,569.91a8,8,0,0,1-2.8,5.09,9.38,9.38,0,0,1-6.17,1.89,11.57,11.57,0,0,1-5.27-1.18,9.07,9.07,0,0,1-3.74-3.39,11.21,11.21,0,0,1,0-10.74,9,9,0,0,1,3.72-3.38,11.5,11.5,0,0,1,5.24-1.18,10.08,10.08,0,0,1,4.72,1.1,8.25,8.25,0,0,1,3.37,3.31,11,11,0,0,1,1.25,5.49h-12.9c0,.27,0,.54,0,.8s0,.51.06.73a7.64,7.64,0,0,0,1.42,4.5,4.29,4.29,0,0,0,3.48,1.48l.2,0a.52.52,0,0,1,.17,0,4.62,4.62,0,0,0,3.12-1.23,6,6,0,0,0,1.63-3.25Zm-9-10.83a2.75,2.75,0,0,0-2.45,1.42,9.61,9.61,0,0,0-1.06,4.33h6.88a9.3,9.3,0,0,0-.9-4.35,2.67,2.67,0,0,0-2.47-1.4m1-9.45h5.83l-6.46,5.64h-1.87Z" transform="translate(-445.6 -503.89)"/><path class="cls-3" d="M480,574.43v2.09H467.28v-2.09H469a1,1,0,0,0,.8-.3,1.39,1.39,0,0,0,.29-1V560.72a1.38,1.38,0,0,0-.29-1,1,1,0,0,0-.8-.32h-1.68V557.4h9.12v3.69h.19a8.31,8.31,0,0,1,2.76-3.1,6.12,6.12,0,0,1,3.22-1,3.73,3.73,0,0,1,4,3.89,3.22,3.22,0,0,1-.9,2.41,3,3,0,0,1-2.17.87,3.17,3.17,0,0,1-2-.63,2.12,2.12,0,0,1-.82-1.79,1.57,1.57,0,0,1,.37-1.09.48.48,0,0,0-.18,0h-.23a3,3,0,0,0-1.66.52,4.71,4.71,0,0,0-1.4,1.44,8.6,8.6,0,0,0-1,2.07v8.48a1.44,1.44,0,0,0,.28,1,1,1,0,0,0,.77.3Z" transform="translate(-445.6 -503.89)"/><path class="cls-3" d="M511.05,572.33a4.82,4.82,0,0,1-.78,2.88,4,4,0,0,1-2.4,1.46,7.31,7.31,0,0,1-2.35.07,5.73,5.73,0,0,1-3-.84,4.09,4.09,0,0,1-1.57-1.92h-.19a7.92,7.92,0,0,1-2.13,1.75,8.08,8.08,0,0,1-2.84,1,9,9,0,0,1-2.09.15,5.6,5.6,0,0,1-3.83-1.36,4.21,4.21,0,0,1-1.37-3.19,4.93,4.93,0,0,1,.9-3,6.18,6.18,0,0,1,3.14-2q.75-.23,1.38-.45c1.52-.5,2.72-.91,3.59-1.23a11.84,11.84,0,0,0,1.95-.88,1.89,1.89,0,0,0,.8-.8,2.63,2.63,0,0,0,.17-1v-.19a4,4,0,0,0-.45-1.68,3.25,3.25,0,0,0-1.33-1.29,5.24,5.24,0,0,0-2.48-.5h-.23a4.71,4.71,0,0,0-1.66.32,8.16,8.16,0,0,0-1.18.57,3.61,3.61,0,0,1,.54.12,1.25,1.25,0,0,1,.43.22,1.71,1.71,0,0,1,.82.73,2.24,2.24,0,0,1,.3,1.17,2.19,2.19,0,0,1-.88,1.91,3.38,3.38,0,0,1-2,.63,3.66,3.66,0,0,1-.81-.09,3.1,3.1,0,0,1-.69-.24,2.67,2.67,0,0,1-1.49-2.5V562a.33.33,0,0,1,0-.17,3.88,3.88,0,0,1,1.12-2.33,7.12,7.12,0,0,1,2.93-1.8,14.51,14.51,0,0,1,4.84-.69,11.14,11.14,0,0,1,6.34,1.53q2.22,1.53,2.45,5.12v8.85a2.15,2.15,0,0,0,.28,1.27.92.92,0,0,0,.8.37h.06l.05,0a.9.9,0,0,0,.67-.4,2,2,0,0,0,.3-1.13c0-.1,0-.2,0-.3s0-.2,0-.3v-1.09h1.87Zm-13.64,1.35a3.1,3.1,0,0,0,1.88-.64,2.53,2.53,0,0,0,1-1.86,4.8,4.8,0,0,0,.06-.56c0-.2,0-.4,0-.6v-3.44c-.6.28-1.17.53-1.72.75s-1.06.45-1.52.69a5.93,5.93,0,0,0-1.17.77,2.62,2.62,0,0,0-.75,1,3.05,3.05,0,0,0-.26,1.34,2.53,2.53,0,0,0,.67,1.92,2.4,2.4,0,0,0,1.76.66" transform="translate(-445.6 -503.89)"/><path class="cls-3" d="M535,566.73a12,12,0,0,1-1.16,5.53,8.18,8.18,0,0,1-3.14,3.45,8.54,8.54,0,0,1-4.48,1.18,7.06,7.06,0,0,1-3.51-.9,7.19,7.19,0,0,1-2.66-2.57l-1.34,3.1h-4.53V553a1.37,1.37,0,0,0-.28-1,1,1,0,0,0-.76-.3h-1.69v-2.09h9.31v10a7.07,7.07,0,0,1,2.52-1.92,7.52,7.52,0,0,1,3.16-.66,8.19,8.19,0,0,1,7.4,4.48,10.89,10.89,0,0,1,1.16,5.23m-14.31,0a13,13,0,0,0,.89,5.47,3.07,3.07,0,0,0,5.59,0,12.45,12.45,0,0,0,.92-5.47,11.82,11.82,0,0,0-.92-5.36,3.15,3.15,0,0,0-5.59,0,12.06,12.06,0,0,0-.89,5.32" transform="translate(-445.6 -503.89)"/><path class="cls-3" d="M546.22,549.63v23.53a1.34,1.34,0,0,0,.3,1,1.06,1.06,0,0,0,.79.3H549v2.09H536.88v-2.09h1.72a1,1,0,0,0,.77-.3,1.44,1.44,0,0,0,.28-1V553a1.42,1.42,0,0,0-.28-1,1,1,0,0,0-.77-.3h-1.72v-2.09Z" transform="translate(-445.6 -503.89)"/><path class="cls-3" d="M570.22,569.91a8,8,0,0,1-2.8,5.09,9.38,9.38,0,0,1-6.17,1.89,11.57,11.57,0,0,1-5.27-1.18,9.07,9.07,0,0,1-3.74-3.39,11.21,11.21,0,0,1,0-10.74,9,9,0,0,1,3.72-3.38,11.49,11.49,0,0,1,5.23-1.18,10.09,10.09,0,0,1,4.73,1.1,8.25,8.25,0,0,1,3.37,3.31,11,11,0,0,1,1.25,5.49h-12.9c0,.27,0,.54,0,.8s0,.51.06.73a7.64,7.64,0,0,0,1.42,4.5,4.29,4.29,0,0,0,3.48,1.48l.2,0a.52.52,0,0,1,.17,0,4.62,4.62,0,0,0,3.12-1.23,6,6,0,0,0,1.63-3.25Zm-9-10.83a2.75,2.75,0,0,0-2.45,1.42,9.61,9.61,0,0,0-1.06,4.33h6.88a9.3,9.3,0,0,0-.9-4.35,2.67,2.67,0,0,0-2.47-1.4" transform="translate(-445.6 -503.89)"/><path class="cls-3" d="M495,543.49a1.26,1.26,0,0,1-1-.37,1.67,1.67,0,0,1-.36-1.18V530.19a12.22,12.22,0,0,0-.63-4.14c2.38-.28,3.82-.67,3.82-1.17,0-2.87-23.88-21-23.88-21s-15.71,12.17-21.65,18.1c-.53.53-1,1-1.32,1.42v1.17h2.12a1.32,1.32,0,0,1,1,.4,1.58,1.58,0,0,1,.36.86c0,.11,0,.22,0,.35v3.38a3.21,3.21,0,0,0-2.58-1.64c-2.07,0-3.75,2.66-3.75,5.93s1.68,5.94,3.75,5.94a3.21,3.21,0,0,0,2.58-1.64v3.73a1.69,1.69,0,0,1-.38,1.23,1.34,1.34,0,0,1-1,.37H450v2.65h14.16v-2.65h-1a1.27,1.27,0,0,1-1-.37,1.74,1.74,0,0,1-.35-1.23v-7.33h7.6v7.33a1.74,1.74,0,0,1-.36,1.23,1.25,1.25,0,0,1-1,.37h-1v2.65h13.07v-2.65h-1a1.37,1.37,0,0,1-1-.37,1.62,1.62,0,0,1-.37-1.18v-7.38h7.64v7.33a1.69,1.69,0,0,1-.37,1.23,1.37,1.37,0,0,1-1,.37h-1v2.65h14.12v-2.65Zm-43.41-5c-1.4,0-2.53-2-2.53-4.38s1.13-4.38,2.53-4.38a2.36,2.36,0,0,1,1.91,1.55V537a2.36,2.36,0,0,1-1.91,1.54m13.87-5h-3.65V530.1a10.86,10.86,0,0,1,2.17-3,5.65,5.65,0,0,1,.68-.55l.8,0Zm3.95,0H466.5v-6.94l2.23.07,0,0a3.93,3.93,0,0,1,.64,2.41Zm6.56-14.3s1.15.72.79,1.26-3,0-3,0l.23,1.87v.06h-1.16l.06-.51.18-1.42s-2.56.3-3,0,.76-1.26.76-1.26-3.57-.26-3.56-.73c0-.86,1-.91,1-.91s-1.73-1.41-1.48-2,2-.13,2-.13-.59-.94-.06-1.25,2.43,1.33,2.43,1.33-1.7-3.43-1.32-4.14,1.76.42,1.76.42.6-3,1.75-3,1.75,3,1.75,3,1-1.22,1.75-.43-1.15,3.6-1.32,4.14,1.91-1.86,2.43-1.33-.05,1.25-.05,1.25,1.72-.65,2,.14-1.48,1.94-1.48,1.94a.93.93,0,0,1,1,.92c0,1-3.6.73-3.6.73m5.16,14.3h-3.41V530.1a10.86,10.86,0,0,1,2.17-3,3.12,3.12,0,0,1,.41-.33l.83,0Zm4.23,0h-3.19v-6.82l1.6-.05.86,0,.07.07a3.86,3.86,0,0,1,.66,2.41Z" transform="translate(-445.6 -503.89)"/><path class="cls-3" d="M576.55,563.3a2.88,2.88,0,0,1-3-3.07,3,3,0,0,1,3.1-3.08c1.68,0,2.46.92,2.46,1.68a.73.73,0,0,1-.78.79.6.6,0,0,1-.62-.5.64.64,0,0,1-.05-.46.47.47,0,0,1,.41-.35l.18,0a1.6,1.6,0,0,0-1.36-.63c-1.11,0-1.75.84-1.75,2.55s.59,2.51,1.7,2.51a1,1,0,0,0,.31,0,1.6,1.6,0,0,0,1.4-1.45h.61a2.42,2.42,0,0,1-2.59,2.07" transform="translate(-445.6 -503.89)"/><path class="cls-3" d="M582.84,563.19h-3.16v-.52h.59c.21,0,.32-.12.32-.37v-6.66c0-.26-.11-.38-.32-.38h-.59v-.52h2.44v3.62h0a2.75,2.75,0,0,1,1.9-1.18,4.18,4.18,0,0,1,.5,0,1.76,1.76,0,0,1,1.74,2v3.12c0,.24.12.36.32.36h.6v.52h-3.16v-.52h.4c.2,0,.32-.12.32-.37V559a.76.76,0,0,0-.15-.5.76.76,0,0,0-.82-.54,2.08,2.08,0,0,0-1.68,1.25v3.1c0,.25.12.37.32.37h.4Z" transform="translate(-445.6 -503.89)"/><path class="cls-3" d="M589.38,559.67h2.81c0-1.35-.5-2-1.38-2s-1.35.67-1.43,2m1.47,3.63a3.08,3.08,0,0,1-.05-6.15,2.73,2.73,0,0,1,2.81,3h-4.25a2.06,2.06,0,0,0,0,.35c0,1.44.66,2.18,1.74,2.18a1,1,0,0,0,.25,0,1.63,1.63,0,0,0,1.55-1.46h.61a2.46,2.46,0,0,1-2.68,2.07" transform="translate(-445.6 -503.89)"/><path class="cls-3" d="M597.75,562.67c1.35,0,1.59-.19,1.78-1.78H600v2.3h-5.58v-.54l3.82-4.87h-1.52c-1.24,0-1.43.17-1.61,1.61h-.48v-2.12h5.26v.53l-3.8,4.87Z" transform="translate(-445.6 -503.89)"/><path class="cls-3" d="M606.41,563.19h-3.15v-.52h.58c.21,0,.32-.12.32-.37v-4.14c0-.26-.11-.38-.32-.38h-.58v-.51h2.39v1.11h.06a2.75,2.75,0,0,1,2.23-1.23,1.79,1.79,0,0,1,1.92,2v3.12c0,.24.12.36.32.36h.6v.52h-3.16v-.52h.4c.2,0,.32-.12.32-.37V559c0-.67-.33-1-1-1a2.05,2.05,0,0,0-1.68,1.25v3.1c0,.25.12.37.31.37h.4Z" transform="translate(-445.6 -503.89)"/><path class="cls-3" d="M614.4,562.79c1,0,1.46-.87,1.46-2.58s-.49-2.55-1.46-2.55-1.45.86-1.45,2.55.49,2.58,1.45,2.58m0,.51a3.08,3.08,0,1,1,3.08-3.07,2.91,2.91,0,0,1-3.08,3.07" transform="translate(-445.6 -503.89)"/><path class="cls-3" d="M624.44,562.3c0,.25.12.37.31.37h.6v.52H623v-1.07h-.06a2.85,2.85,0,0,1-2.21,1.18c-1.08,0-1.74-.59-1.74-1.88v-3.26c0-.26-.1-.38-.31-.38H618v-.51h2.44v4.1c0,.77.32,1.14.91,1.14a1.87,1.87,0,0,0,1.51-1.06v-3.28c0-.27-.11-.39-.3-.39h-.67v-.51h2.51Z" transform="translate(-445.6 -503.89)"/><path class="cls-3" d="M629.08,563.3a2.83,2.83,0,0,1-2.11-.9l-.12.79h-.57v-1.91h.61a2.16,2.16,0,0,0,2.09,1.43c.71,0,1.21-.29,1.21-.88,0-1.56-3.94-.6-3.94-2.93,0-1.06.91-1.75,2.21-1.75a2.61,2.61,0,0,1,2,.81l.1-.69h.56V559h-.6a2.1,2.1,0,0,0-2-1.27c-.68,0-1,.3-1,.73,0,1.35,4,.49,4,2.94,0,1.25-1,1.91-2.35,1.91" transform="translate(-445.6 -503.89)"/><path class="cls-3" d="M632.49,565.27l-.18-.43.25-.12c.7-.36,1.19-.84,1.2-1.44-.62,0-1-.34-1-.87a.84.84,0,0,1,.91-.85c.61,0,1,.49,1,1.15a2.65,2.65,0,0,1-1.83,2.44Z" transform="translate(-445.6 -503.89)"/><path class="cls-3" d="M582.24,576.33a2.87,2.87,0,0,1-3-3.07,3,3,0,0,1,3.1-3.09c1.67,0,2.45.93,2.45,1.68a.74.74,0,0,1-.78.8.6.6,0,0,1-.62-.51.61.61,0,0,1,0-.45.48.48,0,0,1,.42-.35.47.47,0,0,1,.17,0,1.58,1.58,0,0,0-1.36-.62c-1.1,0-1.75.83-1.75,2.54s.59,2.51,1.7,2.51a1.48,1.48,0,0,0,.31,0,1.62,1.62,0,0,0,1.41-1.45h.61a2.43,2.43,0,0,1-2.6,2.07" transform="translate(-445.6 -503.89)"/><path class="cls-3" d="M588.76,576.21H585.6v-.51h.58c.22,0,.32-.12.32-.38v-6.66c0-.26-.1-.37-.32-.37h-.58v-.52H588v3.61h0a2.74,2.74,0,0,1,1.9-1.17,4.35,4.35,0,0,1,.51,0,1.76,1.76,0,0,1,1.74,2v3.12c0,.25.11.37.31.37h.6v.51H590v-.51h.4c.2,0,.32-.12.32-.38V572a.85.85,0,0,0-.14-.5.78.78,0,0,0-.82-.54,2.06,2.06,0,0,0-1.68,1.26v3.09c0,.26.12.38.32.38h.4Z" transform="translate(-445.6 -503.89)"/><path class="cls-3" d="M595.51,572.7h2.82c0-1.35-.5-2-1.38-2s-1.35.67-1.44,2m1.48,3.63a3.08,3.08,0,0,1-.06-6.16,2.74,2.74,0,0,1,2.82,3H595.5c0,.12,0,.25,0,.35.06,1.45.67,2.18,1.75,2.18l.25,0a1.64,1.64,0,0,0,1.55-1.46h.61a2.46,2.46,0,0,1-2.68,2.07" transform="translate(-445.6 -503.89)"/><path class="cls-3" d="M604.11,575.7c1.35,0,1.59-.19,1.78-1.78h.48v2.29h-5.58v-.54l3.82-4.86h-1.52c-1.24,0-1.43.16-1.6,1.6H601v-2.12h5.26v.54l-3.8,4.87Z" transform="translate(-445.6 -503.89)"/><path class="cls-3" d="M612.59,576.33c-1.12,0-1.76-.49-1.76-1.85v-3.67H610v-.52h.44c.58,0,.86-.2,1-1l.13-.65h.82v1.66h1.83v.52h-1.83v4c0,.68.23.89.64.89s.69-.22.69-.86v-.58h.47v.62a1.38,1.38,0,0,1-1.57,1.5" transform="translate(-445.6 -503.89)"/><path class="cls-3" d="M618.36,575.81c1,0,1.46-.86,1.46-2.58s-.5-2.54-1.46-2.54-1.46.86-1.46,2.54.5,2.58,1.46,2.58m0,.52a3.08,3.08,0,1,1,3.07-3.07,2.91,2.91,0,0,1-3.07,3.07" transform="translate(-445.6 -503.89)"/><path class="cls-3" d="M623,568.57a.92.92,0,1,1,.92.85.83.83,0,0,1-.92-.85m1.75,6.75c0,.26.12.38.32.38h.6v.51h-3.36v-.51h.58c.22,0,.32-.12.32-.38v-4.14c0-.25-.1-.37-.32-.37h-.58v-.52h2.44Z" transform="translate(-445.6 -503.89)"/><path class="cls-3" d="M627,575.46a.93.93,0,1,1,.92.87.85.85,0,0,1-.92-.87" transform="translate(-445.6 -503.89)"/></g></svg>