<svg id="Layer_1" data-name="Layer 1" xmlns="http://www.w3.org/2000/svg" xmlns:xlink="http://www.w3.org/1999/xlink" viewBox="0 0 291.51 246.81"><defs><style>.cls-1{fill:none;}.cls-2{clip-path:url(#clip-path);}.cls-3{fill:#628393;}</style><clipPath id="clip-path" transform="translate(-394.34 -416.99)"><rect class="cls-1" x="394.34" y="416.99" width="291.51" height="246.81"/></clipPath></defs><g class="cls-2"><path class="cls-3" d="M617.24,590.13H598.59V550.3c3.1-.08,14.66-.2,14.8,0q3.86,5,3.85,14.05Zm-24.69,0H572.6v-20a63.84,63.84,0,0,1,12.68-17.63,23.39,23.39,0,0,1,2.38-2l4.89-.09Zm-30.16-83.54s6.71,4.21,4.63,7.4-17.33.08-17.33.08L551,525l0,.32h-6.8l.37-3,1-8.29s-14.9,1.75-17.36-.1,4.43-7.37,4.43-7.37-20.83-1.49-20.82-4.27c0-5,5.94-5.32,5.94-5.32s-10.11-8.23-8.68-11.38,11.85-.77,11.85-.77-3.45-5.46-.35-7.31,14.2,7.76,14.2,7.76-9.91-20-7.71-24.14,10.29,2.46,10.29,2.46,3.52-17.45,10.2-17.31,10.22,17.31,10.22,17.31,5.61-7.13,10.24-2.53-6.72,21-7.73,24.16,11.16-10.83,14.21-7.73-.32,7.26-.32,7.26,10.07-3.79,11.86.84S577.48,497,577.48,497s5.86-.34,5.95,5.36-21,4.27-21,4.27m-38.28,83.54h-17V549.62c4.53.14,13.22.55,13.3.65q3.72,5,3.72,14.05Zm-23.05,0H479.75v-20a63.61,63.61,0,0,1,12.67-17.63,27.5,27.5,0,0,1,4-3.2l4.66.15Zm-81,29c-8.15,0-14.76-11.46-14.76-25.58S411.94,568,420.09,568c4.49,0,8.45,3.55,11.16,9v33.12c-2.71,5.47-6.67,9-11.16,9m253.37,29.23a7.37,7.37,0,0,1-5.66-2.2c-1.37-1.47-2.06-3.76-2.06-6.89V570.66c0-9.36-1.27-17.4-3.71-24.23,13.9-1.62,22.32-3.89,22.32-6.8C684.35,522.86,545,417,545,417s-91.69,71.09-126.34,105.73q-4.64,4.63-7.75,8.28v6.87h12.4a7.65,7.65,0,0,1,5.79,2.34,8.72,8.72,0,0,1,2.08,5c.07.64.12,21.8.12,21.8-3.92-5.93-9.21-9.59-15.06-9.59-12.06,0-21.85,15.52-21.85,34.67s9.79,34.67,21.85,34.67c5.85,0,11.14-3.66,15.06-9.59V639q0,5-2.2,7.17a7.86,7.86,0,0,1-5.79,2.2h-12.4v15.43h82.66V648.36h-6.06a7.37,7.37,0,0,1-5.65-2.2c-1.38-1.47-2.06-3.86-2.06-7.17V596.16h44.36V639q0,5-2.07,7.17a7.37,7.37,0,0,1-5.65,2.2h-6.06v15.43h76.33V648.36h-6.07a7.82,7.82,0,0,1-5.78-2.2c-1.47-1.47-2.21-3.76-2.21-6.89V596.16h44.64V639q0,5-2.2,7.17a7.84,7.84,0,0,1-5.79,2.2h-5.78v15.43h82.38V648.36Z" transform="translate(-394.34 -416.99)"/></g></svg>