<svg id="Layer_1" data-name="Layer 1" xmlns="http://www.w3.org/2000/svg" viewBox="0 0 324 227"><defs><style>.cls-1{fill:#9a3720;}.cls-2{fill:#f4f7f6;}</style></defs><g id="Layer_2" data-name="Layer 2"><g id="Layer_1-2" data-name="Layer 1-2"><rect class="cls-1" width="324" height="227" rx="22.05"/></g></g><path class="cls-2" d="M208.36,131.42H196.9V107q2.86-.08,5.73-.18l3.09-.11a2.29,2.29,0,0,1,.27.27q2.37,3,2.37,8.63Zm-15.16,0H180.94V119.13a39,39,0,0,1,7.79-10.83,14.49,14.49,0,0,1,1.46-1.2l3-.06ZM174.67,80.11s4.12,2.59,2.85,4.55-10.65,0-10.65,0l.82,6.73,0,.2h-4.17l.22-1.83.63-5.09s-9.15,1.07-10.67-.07,2.73-4.52,2.73-4.52-12.8-.91-12.79-2.62c0-3.07,3.64-3.27,3.64-3.27s-6.2-5.06-5.32-7,7.28-.47,7.28-.47-2.13-3.36-.22-4.5S157.76,67,157.76,67,151.68,54.77,153,52.21s6.32,1.52,6.32,1.52,2.16-10.72,6.26-10.64,6.28,10.63,6.28,10.63,3.44-4.38,6.29-1.55S174.05,65.08,173.43,67s6.85-6.65,8.72-4.75-.19,4.46-.19,4.46,6.19-2.33,7.29.52-5.31,7-5.31,7,3.6-.21,3.65,3.29-12.92,2.62-12.92,2.62m-23.51,51.31H140.7V106.54c2.79.09,5.48.17,8,.23a1.25,1.25,0,0,1,.16.17q2.3,3,2.29,8.63Zm-14.16,0H123.91V119.13a39.13,39.13,0,0,1,7.78-10.83,18.08,18.08,0,0,1,2.45-2l2.86.1ZM87.27,149.23c-5,0-9.07-7-9.07-15.71s4.06-15.71,9.07-15.71c2.75,0,5.19,2.18,6.86,5.54v20.34c-1.67,3.37-4.11,5.54-6.86,5.54m155.62,18a4.52,4.52,0,0,1-3.47-1.35,6,6,0,0,1-1.27-4.24V119.46a44.16,44.16,0,0,0-2.28-14.88c8.54-1,13.71-2.39,13.71-4.18,0-10.29-85.62-75.32-85.62-75.32S107.64,68.75,86.36,90c-1.9,1.89-3.48,3.59-4.76,5.09v4.21h7.62a4.69,4.69,0,0,1,3.55,1.44,5.34,5.34,0,0,1,1.28,3.08,9.69,9.69,0,0,1,.08,1.24v12.15c-2.41-3.64-5.66-5.89-9.25-5.89-7.41,0-13.42,9.53-13.42,21.29s6,21.3,13.42,21.3c3.59,0,6.84-2.25,9.25-5.89v13.39c0,2-.46,3.51-1.36,4.41a4.81,4.81,0,0,1-3.55,1.35H81.6v9.48h50.77v-9.48h-3.72a4.53,4.53,0,0,1-3.47-1.35c-.85-.9-1.27-2.37-1.27-4.41V135.12h27.25v26.31c0,2-.42,3.51-1.27,4.41a4.55,4.55,0,0,1-3.47,1.35H142.7v9.48h46.87v-9.48h-3.72a4.79,4.79,0,0,1-3.55-1.35,5.74,5.74,0,0,1-1.36-4.24V135.12h27.42v26.31q0,3.06-1.35,4.41a4.83,4.83,0,0,1-3.56,1.35H199.9v9.48h50.6v-9.48Z"/></svg>