<svg id="Layer_1" data-name="Layer 1" xmlns="http://www.w3.org/2000/svg" xmlns:xlink="http://www.w3.org/1999/xlink" viewBox="0 0 324 227"><defs><style>.cls-1,.cls-6,.cls-7{fill:none;}.cls-2{fill:#1c1d23;}.cls-3{clip-path:url(#clip-path);}.cls-4{fill:#f4f7f6;}.cls-5{fill:#628393;}.cls-6{stroke:#f4f7f6;stroke-width:2.34px;}.cls-7{stroke:#628393;stroke-width:4.1px;}</style><clipPath id="clip-path"><rect class="cls-1" x="57.43" y="-139.24" width="207.57" height="537.24"/></clipPath></defs><g id="Layer_2" data-name="Layer 2"><g id="Layer_1-2" data-name="Layer 1-2"><rect class="cls-2" width="324" height="227" rx="22.05"/></g></g><g class="cls-3"><path class="cls-4" d="M126.53,123.48l-3-4.56,9.73-6.32,1.55,2.23.85,1.2a1.16,1.16,0,0,1,0,.18,6.54,6.54,0,0,1-2.82,3.17Zm-3.92-6-3.17-4.88,4.89-3.17a18.37,18.37,0,0,1,6.33.3,7,7,0,0,1,.85.27l.8,1.18ZM138.24,96.8s0,2.31-1.07,2.31-2.77-4.22-2.77-4.22L131.93,97l-.07.06-1.08-1.66.79-.38,2.19-1.07S131,90.53,131,89.64s2.51-.09,2.51-.09-2.95-5.33-2.26-5.77c1.22-.78,2.24.61,2.24.61s.41-3.78,1.4-3.93S137,83.24,137,83.24s.78-1.72,1.73-1.25.35,4.7.35,4.7,3.32-5.59,4.68-5.71,1,2.9,1,2.9,4.83-1.91,5.86-.25S148,88.87,148,88.87s2.63.24,2.24,2.11-6.21,1.69-7.13,1.94,4.42,1,4.14,2.25-1.82,1.07-1.82,1.07,2.52,1.86,1.68,3S143,99,143,99a1.58,1.58,0,0,1-.36,2.31c-1.39.93-4.39-4.47-4.39-4.47m-26.5,3.91L109,96.55l9.9-6.43c.69,1.13,1.35,2.22,2,3.24a.45.45,0,0,1,0,.11,6.68,6.68,0,0,1-2.84,3.14Zm-3.66-5.64-3.38-5.21,4.89-3.18a18.81,18.81,0,0,1,6.32.3,8.44,8.44,0,0,1,1.42.47l.7,1.16Zm-20-15.19c-1.29-2,.46-5.43,3.91-7.67s7.31-2.45,8.6-.45c.71,1.09.48,2.63-.43,4.16l-8.1,5.26c-1.77.21-3.26-.2-4-1.3m33.08,66.59a2.11,2.11,0,0,1-.35-1.73,2.83,2.83,0,0,1,1.35-1.6L139,132.25a21.14,21.14,0,0,0,5.33-4.76c2.61,3.14,4.5,4.84,5.21,4.38,4.1-2.66,7.85-53.56,7.85-53.56s-31.94-11.13-45.91-14.1c-1.25-.26-2.33-.46-3.26-.58l-1.68,1.09,2,3a2.21,2.21,0,0,1,.35,1.79,2.57,2.57,0,0,1-.89,1.3c-.15.12-.3.24-.48.36l-4.84,3.14a5.44,5.44,0,0,0,0-5.21c-1.92-2.95-7.27-2.88-11.95.16s-6.92,7.9-5,10.85a5.43,5.43,0,0,0,4.73,2.16l-5.33,3.46a2.83,2.83,0,0,1-2.1.6,2.25,2.25,0,0,1-1.46-1.06l-2-3-3.77,2.45,13.12,20.21,3.77-2.45-1-1.49a2.14,2.14,0,0,1-.36-1.73,3,3,0,0,1,1.43-1.64l10.47-6.8,7,10.85-10.47,6.8a3,3,0,0,1-2.08.63,2.11,2.11,0,0,1-1.43-1l-1-1.48L91.54,109l12.12,18.66,3.77-2.45-1-1.48a2.28,2.28,0,0,1-.38-1.77,2.71,2.71,0,0,1,1.33-1.63L118,113.52l7.09,10.92-10.47,6.8a2.92,2.92,0,0,1-2.1.6,2.31,2.31,0,0,1-1.46-1.07l-.92-1.41-3.77,2.45L119.41,152l3.77-2.45Z"/><path class="cls-5" d="M216.86,122.68l-3-4.56-9.58,6.22,1.41,2.33.75,1.25a.58.58,0,0,0,.18,0,6.36,6.36,0,0,0,4-1.25Zm-3.92-6-3.17-4.87L205,114.89a18.24,18.24,0,0,0-2.23,5.86,6.78,6.78,0,0,0-.1.88c.26.4.51.81.76,1.21Zm-24.89,5.68s2.08,1,2.52,0-2.73-4.26-2.73-4.26l2.84-1.38.08,0L189.69,115l-.66.55-1.83,1.55s-1.95-3.92-2.79-4.23-1.06,2.23-1.06,2.23-3.67-4.86-4.34-4.42c-1.19.79-.34,2.28-.34,2.28s-3.58-1.18-4.11-.34,1.7,3,1.7,3-1.87,0-1.82,1.05,4.12,2.26,4.12,2.26-6.38.7-7,1.89,2.23,2.13,2.23,2.13-3.64,3.59-2.55,5.2,5.79-.21,5.79-.21-.82,2.49,1,2.9,4-4.93,4.58-5.66-.83,4.42.4,4.68,1.69-1.21,1.69-1.21.69,3.05,2.09,2.77,1.35-3.89,1.35-3.89a1.58,1.58,0,0,0,2.24.62c1.39-.87-2.32-5.81-2.32-5.81m14-22.41-2.7-4.16-9.74,6.33,2.16,3.12.1,0a6.5,6.5,0,0,0,4-1.29Zm-3.66-5.64L195,89.06l-4.82,3.13A18.57,18.57,0,0,0,188,98a8.47,8.47,0,0,0-.13,1.48l.77,1.11ZM192.53,70c-1.29-2-5.1-1.82-8.5.38s-5.1,5.61-3.8,7.61c.71,1.09,2.19,1.51,3.94,1.32l8-5.18c.89-1.51,1.11-3,.4-4.13m47.26,57.38a2.16,2.16,0,0,0-1.42-1,2.76,2.76,0,0,0-2,.57l-16.5,10.72a20.46,20.46,0,0,1-6.42,2.88c1.81,3.65,2.61,6.06,1.91,6.52-4,2.61-51.64-14.93-51.64-14.93s2.55-33.52,5.38-47.4c.25-1.24.5-2.31.76-3.19l1.65-1.08,2,3a2.21,2.21,0,0,0,1.48,1,2.45,2.45,0,0,0,1.54-.27,5.14,5.14,0,0,0,.5-.28l4.76-3.09a5.48,5.48,0,0,1-4.7-2.19c-1.91-2.95.27-7.77,4.87-10.76s9.9-3,11.81-.07a5.46,5.46,0,0,1,.09,5.18l5.24-3.41a2.77,2.77,0,0,0,1.38-1.66,2.31,2.31,0,0,0-.39-1.76l-2-3,3.71-2.41,13.13,20.21-3.72,2.41-1-1.48a2.18,2.18,0,0,0-1.43-1,3,3,0,0,0-2.05.62l-10.3,6.69,7,10.85,10.31-6.69a2.91,2.91,0,0,0,1.39-1.63,2.16,2.16,0,0,0-.36-1.72l-1-1.49L217.6,85l12.12,18.66L226,106.1l-1-1.48a2.31,2.31,0,0,0-1.45-1.07,2.67,2.67,0,0,0-2,.54l-10.37,6.73,7.09,10.92,10.3-6.69a2.8,2.8,0,0,0,1.38-1.66,2.3,2.3,0,0,0-.39-1.76l-.92-1.42,3.71-2.41L245.47,128l-3.71,2.41Z"/></g><line class="cls-6" x1="137.08" y1="16.27" x2="145.58" y2="43.46"/><line class="cls-6" x1="112.45" y1="190.18" x2="129.74" y2="167.53"/><line class="cls-6" x1="213.68" y1="29.79" x2="196.03" y2="52.34"/><line class="cls-6" x1="189.05" y1="203.67" x2="180.18" y2="176.44"/><line class="cls-7" x1="177.63" y1="9.8" x2="171.55" y2="44.27"/><line class="cls-7" x1="148.34" y1="210.13" x2="154.42" y2="175.66"/></svg>