<svg id="Layer_1" data-name="Layer 1" xmlns="http://www.w3.org/2000/svg" viewBox="0 0 324 227"><defs><style>.cls-1{fill:#b46428;}.cls-2{fill:#f4f7f6;}</style></defs><g id="Layer_2" data-name="Layer 2"><g id="Layer_1-2" data-name="Layer 1-2"><rect class="cls-1" width="324" height="227" rx="22.05"/></g></g><path class="cls-2" d="M208.66,131.71H197.21V107.25l5.72-.18c1,0,2.06-.08,3.09-.12a2.4,2.4,0,0,1,.27.28q2.37,3,2.37,8.63Zm-15.16,0H181.25v-12.3A39.22,39.22,0,0,1,189,108.58a17.31,17.31,0,0,1,1.46-1.19l3-.06ZM175,80.4S179.09,83,177.82,85s-10.65,0-10.65,0l.82,6.73,0,.19h-4.17l.22-1.82.63-5.09s-9.15,1.07-10.66-.07,2.72-4.53,2.72-4.53S144,79.49,144,77.78c0-3.06,3.65-3.27,3.65-3.27s-6.21-5.05-5.33-7,7.28-.48,7.28-.48-2.12-3.35-.22-4.49,8.72,4.77,8.72,4.77S152,55.05,153.33,52.5,159.65,54,159.65,54s2.16-10.73,6.26-10.64S172.19,54,172.19,54s3.45-4.38,6.29-1.55-4.13,12.91-4.75,14.84,6.85-6.65,8.73-4.75-.2,4.46-.2,4.46,6.19-2.33,7.29.51-5.31,7-5.31,7,3.6-.22,3.65,3.29S175,80.4,175,80.4m-23.51,51.31H141V106.83c2.78.09,5.47.16,8,.23a.91.91,0,0,1,.17.17q2.28,3,2.28,8.63Zm-14.16,0H124.21v-12.3A39.25,39.25,0,0,1,132,108.58a17.32,17.32,0,0,1,2.44-2l2.86.09ZM87.57,149.52c-5,0-9.07-7-9.07-15.71s4.06-15.71,9.07-15.71c2.76,0,5.19,2.18,6.86,5.54V144c-1.67,3.36-4.1,5.54-6.86,5.54m155.62,18a4.49,4.49,0,0,1-3.47-1.36,6,6,0,0,1-1.27-4.23V119.75a44.08,44.08,0,0,0-2.28-14.88c8.54-1,13.71-2.39,13.71-4.18,0-10.3-85.62-75.33-85.62-75.33S108,69,86.67,90.3q-2.85,2.85-4.77,5.09v4.22h7.62a4.65,4.65,0,0,1,3.55,1.44,5.28,5.28,0,0,1,1.28,3.08,9.69,9.69,0,0,1,.08,1.24v12.15c-2.41-3.65-5.66-5.89-9.25-5.89-7.41,0-13.42,9.53-13.42,21.29s6,21.3,13.42,21.3c3.59,0,6.84-2.25,9.25-5.89v13.39c0,2-.45,3.5-1.36,4.4a4.78,4.78,0,0,1-3.55,1.36H81.9V177h50.77v-9.48H129a4.5,4.5,0,0,1-3.47-1.36c-.85-.9-1.27-2.37-1.27-4.4V135.41h27.25v26.31c0,2-.42,3.5-1.27,4.4a4.5,4.5,0,0,1-3.47,1.36H143V177h46.88v-9.48h-3.73a4.78,4.78,0,0,1-3.55-1.36,5.73,5.73,0,0,1-1.35-4.23V135.41h27.41v26.31c0,2-.45,3.5-1.35,4.4a4.8,4.8,0,0,1-3.56,1.36H200.2V177h50.6v-9.48Z"/></svg>